Coordinates
version=1
nRows=8
nColumns=40
inDegrees=yes

Units are S.I. units (second, meters, Newtons, ...)
Angles are in degrees.

endheader
time	pelvis_tilt	pelvis_list	pelvis_rotation	pelvis_tx	pelvis_ty	pelvis_tz	hip_flexion_r	hip_adduction_r	hip_rotation_r	knee_angle_r	knee_angle_r_beta	ankle_angle_r	subtalar_angle_r	mtp_angle_r	hip_flexion_l	hip_adduction_l	hip_rotation_l	knee_angle_l	knee_angle_l_beta	ankle_angle_l	subtalar_angle_l	mtp_angle_l	lumbar_extension	lumbar_bending	lumbar_rotation	arm_flex_r	arm_add_r	arm_rot_r	elbow_flex_r	pro_sup_r	wrist_flex_r	wrist_dev_r	arm_flex_l	arm_add_l	arm_rot_l	elbow_flex_l	pro_sup_l	wrist_flex_l	wrist_dev_l
      1.96000000	     -1.98400453	     -1.25099453	     -0.78407834	      0.44282562	      0.89143690	      1.09666692	      7.20343247	      4.43744752	    -14.39578448	    -21.30470605	     -0.37183727	     11.41917287	      0.02073121	      0.56226255	     28.30131501	      6.02070891	      8.14264177	    -49.83883501	     -0.86985177	     10.81037135	     18.35109416	     19.04136182	     -4.43977154	      2.02512245	      0.07816258	      1.32487244	    -10.32947078	    -12.21142064	     31.81379691	     89.95437384	      0.00000000	      0.00000000	     -1.43091344	      6.60208274	     19.43621710	     30.20125689	     89.95437384	      0.00000000	      0.00000000
      1.97000000	     -2.20838589	     -1.30581994	     -0.87531766	      0.44837875	      0.89086556	      1.09692735	      7.01698560	      4.52447030	    -14.46402621	    -21.24848526	     -0.37085603	     11.57699077	      0.05395878	      0.47360965	     29.09129130	      6.02137765	      8.30156376	    -48.15260460	     -0.84042149	     10.68421624	     18.06763429	     18.81417335	     -4.29567655	      2.10566294	      0.25162447	      1.52279692	    -10.44092353	    -12.04359451	     32.19005892	     89.95437384	      0.00000000	      0.00000000	     -1.61864080	      6.55343925	     19.41855944	     30.13958919	     89.95437384	      0.00000000	      0.00000000
      1.98000000	     -2.27692648	     -1.09552240	     -0.99872490	      0.45397955	      0.89059205	      1.09700009	      6.70899981	      4.30063049	    -14.18758460	    -21.29907208	     -0.37173894	     11.86024550	      0.13987700	      0.30036123	     29.53000449	      5.72981829	      8.61906251	    -46.21374481	     -0.80658201	     10.25634664	     17.79798416	     18.52455282	     -4.33130456	      1.89900112	      0.45619994	      1.71901619	    -10.54004760	    -11.78019719	     32.61731140	     89.95437384	      0.00000000	      0.00000000	     -1.69735226	      6.48378717	     19.52657259	     29.93875702	     89.95437384	      0.00000000	      0.00000000
      1.99000000	     -2.43412797	     -1.19959797	     -1.03703461	      0.45967153	      0.88998429	      1.09720138	      6.44725273	      4.42075520	    -14.37169078	    -21.28685472	     -0.37152570	     12.08177117	      0.12125026	      0.22608454	     30.23933918	      5.84871252	      9.01215495	    -44.66911613	     -0.77962315	     10.20885926	     17.58140569	     18.32516774	     -4.23408539	      2.01997636	      0.53819604	      1.93786071	    -10.61542145	    -11.66318779	     32.94588978	     89.95437384	      0.00000000	      0.00000000	     -1.92087454	      6.45620709	     19.52217092	     29.91862735	     89.95437384	      0.00000000	      0.00000000
      2.00000000	     -2.20187303	     -0.77433404	     -1.24562574	      0.46551302	      0.89021637	      1.09715970	      5.74075093	      3.93861386	    -14.10895146	    -21.24776093	     -0.37084339	     12.54625212	      0.42458357	     -0.08953314	     30.06855034	      5.28932969	      9.35732003	    -42.47775272	     -0.74137664	      9.57224752	     17.23991133	     17.82805348	     -4.61059394	      1.53827860	      0.78709371	      2.22736507	    -10.72305243	    -11.24160284	     33.20195504	     89.95437384	      0.00000000	      0.00000000	     -1.90720371	      6.37022309	     19.82257304	     29.67580982	     89.95437384	      0.00000000	      0.00000000
      2.01000000	     -2.37541427	     -0.89051365	     -1.29786478	      0.47119149	      0.88953457	      1.09727487	      5.53444267	      4.05709662	    -14.21570848	    -21.27539492	     -0.37132569	     12.65635118	      0.51310091	     -0.20068672	     30.68403958	      5.38341333	      9.64889953	    -40.85830360	     -0.71311192	      9.34041019	     16.86757486	     17.55108305	     -4.50140005	      1.68459861	      0.93830433	      2.44209903	    -10.79468061	    -11.17320688	     33.45282527	     89.95437384	      0.00000000	      0.00000000	     -2.01270537	      6.31518135	     19.80642236	     29.55230967	     89.95437384	      0.00000000	      0.00000000
      2.02000000	     -2.16131458	     -0.66233413	     -1.43319082	      0.47730577	      0.88956066	      1.09719862	      4.84295255	      3.76091416	    -14.13349104	    -21.27526121	     -0.37132336	     12.83629161	      0.88841131	     -0.58599040	     30.59746267	      5.13840610	     10.30693475	    -38.92688173	     -0.67940225	      8.83714816	     16.61090274	     16.82694721	     -4.80742280	      1.40506879	      1.05221404	      2.72441085	    -10.83550704	    -10.92189191	     33.65455010	     89.95437384	      0.00000000	      0.00000000	     -2.09886151	      6.25767405	     20.07059089	     29.39987396	     89.95437384	      0.00000000	      0.00000000
      2.03000000	     -2.34459907	     -0.74952620	     -1.46236578	      0.48317537	      0.88876287	      1.09725340	      4.59954611	      3.85283749	    -14.19165595	    -21.26172744	     -0.37108715	     13.06633504	      0.98776488	     -0.73793477	     31.13164776	      5.21672152	     10.69899161	    -37.36470279	     -0.65213709	      8.46686946	     16.16308947	     16.49486364	     -4.64996426	      1.49471610	      1.13348204	      2.91308305	    -10.87974384	    -10.81832822	     33.88196002	     89.95437384	      0.00000000	      0.00000000	     -2.24783896	      6.21837989	     20.03230545	     29.30481040	     89.95437384	      0.00000000	      0.00000000
